<svg xmlns="http://www.w3.org/2000/svg" viewBox="0 0 16 16" width="18" height="18" fill="currentColor" class="text-black share mr-4 ml-4"><path fill-rule="evenodd" d="M11.724 3.947l-7 3.5-.448-.894 7-3.5.448.894zm-.448 9l-7-3.5.448-.894 7 3.5-.448.894z"></path><path fill-rule="evenodd" d="M13.5 4a1.5 1.5 0 1 0 0-3 1.5 1.5 0 0 0 0 3zm0 1a2.5 2.5 0 1 0 0-5 2.5 2.5 0 0 0 0 5zm0 10a1.5 1.5 0 1 0 0-3 1.5 1.5 0 0 0 0 3zm0 1a2.5 2.5 0 1 0 0-5 2.5 2.5 0 0 0 0 5zm-11-6.5a1.5 1.5 0 1 0 0-3 1.5 1.5 0 0 0 0 3zm0 1a2.5 2.5 0 1 0 0-5 2.5 2.5 0 0 0 0 5z"></path></svg>